<?xml version="1.0" standalone="no"?>
<!DOCTYPE svg PUBLIC "-//W3C//DTD SVG 20010904//EN"
 "http://www.w3.org/TR/2001/REC-SVG-20010904/DTD/svg10.dtd">
<svg version="1.0" xmlns="http://www.w3.org/2000/svg"
 width="537.000000pt" height="537.000000pt" viewBox="0 0 537.000000 537.000000"
 preserveAspectRatio="xMidYMid meet">
<metadata>
Created by potrace 1.14, written by Peter Selinger 2001-2017
</metadata>
<g transform="translate(0.000000,537.000000) scale(0.100000,-0.100000)"
fill="#000000" stroke="none">
<path d="M2997 5293 c-19 -43 -60 -130 -90 -193 -30 -63 -71 -153 -92 -200
-21 -47 -49 -110 -62 -140 -106 -234 -283 -665 -397 -970 -75 -201 -141 -374
-146 -385 -5 -11 -26 -66 -47 -123 -32 -87 -42 -104 -63 -108 -147 -33 -252
-76 -315 -129 -63 -53 -135 -129 -135 -142 0 -7 -3 -13 -8 -13 -4 0 -16 -20
-27 -45 -11 -25 -24 -45 -29 -45 -4 0 -6 -6 -3 -14 3 -8 3 -16 -1 -18 -14 -6
-53 -147 -58 -209 -7 -76 -7 -163 0 -239 2 -30 7 -99 11 -153 l7 -99 -33 -28
c-33 -27 -34 -30 -33 -96 1 -69 33 -164 54 -164 18 0 10 -98 -11 -157 -20 -56
-64 -107 -82 -96 -19 12 -79 4 -98 -13 -17 -15 -18 -20 -5 -38 11 -18 11 -23
0 -34 -20 -19 -17 -49 6 -65 18 -12 18 -16 6 -26 -20 -16 -1 -61 26 -61 19 0
19 -14 1 -60 -5 -14 -20 -53 -32 -87 -17 -46 -29 -63 -46 -67 -13 -3 -29 -19
-36 -34 -8 -18 -45 -50 -103 -87 -50 -33 -182 -119 -294 -193 -193 -127 -206
-133 -260 -137 -31 -1 -59 -3 -62 -4 -3 -1 -3 -35 0 -77 l5 -77 40 -16 c22 -9
41 -23 41 -31 0 -8 5 -24 9 -34 6 -13 5 -21 -3 -24 -6 -2 -22 -12 -34 -22
l-23 -18 27 -13 c23 -10 31 -9 53 5 14 9 25 21 25 26 0 5 11 21 25 36 l24 26
69 -21 c37 -11 83 -22 102 -23 20 -1 35 -9 37 -18 4 -14 44 -38 76 -44 6 -2
21 -6 32 -10 11 -5 43 -16 70 -27 72 -27 248 -90 260 -94 47 -12 75 -29 75
-45 0 -22 39 -72 51 -65 5 4 9 1 9 -5 0 -6 5 -8 10 -5 6 4 8 11 5 16 -4 5 -1
9 5 9 6 0 2 10 -10 22 -41 44 -35 46 155 51 128 3 157 1 198 -15 59 -22 121
-23 178 -2 37 13 73 15 229 9 250 -9 306 -11 440 -19 63 -3 162 -9 220 -12
307 -16 380 -22 398 -36 6 -6 12 -23 12 -39 0 -25 4 -29 29 -29 23 0 32 7 42
30 10 20 20 28 33 26 14 -2 30 11 54 47 32 46 33 50 15 62 -45 33 -52 42 -57
79 -4 21 -17 86 -30 145 -13 58 -27 126 -32 151 -9 50 -11 59 -13 63 -2 1 -4
19 -7 40 -3 27 4 56 26 107 30 68 43 121 55 217 11 85 24 113 51 113 28 0 31
6 38 80 2 30 6 62 9 70 23 87 30 111 44 150 20 54 64 134 96 174 20 25 25 27
38 14 30 -30 117 -61 194 -70 90 -10 193 -5 224 11 27 15 39 61 36 141 -5 118
-21 175 -69 250 -84 130 -141 172 -298 221 -43 13 -78 27 -78 32 0 4 51 7 113
8 166 2 225 8 342 39 62 16 81 18 84 8 9 -26 61 -65 103 -77 77 -22 137 -1
212 75 54 55 100 145 98 192 -3 65 -50 111 -129 127 -18 4 -33 10 -33 13 0 4
11 24 25 44 14 20 25 41 25 47 0 5 4 11 9 13 6 1 41 64 78 138 73 144 101 219
120 325 9 52 9 240 -1 285 -17 87 -69 211 -113 270 -49 67 -197 200 -222 200
-5 0 -11 4 -13 8 -3 8 -106 60 -170 86 -39 15 -40 20 -17 71 5 11 22 56 38
100 33 91 157 410 171 440 5 11 39 94 76 185 65 161 182 441 230 549 13 29 24
57 24 62 0 5 -24 9 -53 9 l-53 0 -47 -112 c-26 -62 -69 -174 -97 -248 -28 -74
-54 -144 -59 -155 -9 -19 -96 -248 -143 -375 -11 -30 -25 -64 -29 -75 -5 -11
-36 -96 -70 -190 -34 -93 -66 -183 -71 -198 -8 -20 -15 -26 -27 -22 -91 36
-316 43 -426 12 -103 -29 -220 -93 -284 -158 -40 -40 -111 -146 -111 -166 0
-8 -8 -33 -19 -56 -47 -107 -116 -332 -147 -482 -15 -75 -16 -76 -35 -70 -53
17 -70 15 -94 -11 -13 -14 -27 -38 -30 -54 l-6 -29 -48 45 c-117 109 -277 179
-408 179 -24 0 -43 4 -43 8 0 5 -5 5 -11 1 -7 -4 -42 -8 -78 -9 -36 -1 -95 -8
-130 -14 -34 -7 -65 -10 -67 -8 -3 2 35 103 84 223 49 121 133 327 187 459
202 498 473 1117 615 1407 l49 98 -58 0 -58 0 -36 -77z m214 -2894 c44 -38
153 -106 242 -152 49 -25 84 -48 79 -51 -13 -8 -149 5 -212 19 -54 13 -76 16
-166 24 -9 1 -9 13 -3 41 11 48 22 110 22 128 0 17 10 15 38 -9z m-109 -468
c-1 -6 9 -16 22 -22 l25 -12 -30 -31 c-24 -25 -31 -28 -38 -16 -6 8 -8 17 -6
20 2 4 5 23 7 44 1 20 7 35 13 32 5 -2 9 -9 7 -15z m-1579 -647 c20 -19 38
-41 39 -47 0 -7 2 -16 3 -22 2 -15 68 -149 75 -155 4 -3 10 -12 13 -20 4 -12
6 -12 6 2 1 9 -4 29 -10 45 -16 41 -22 96 -9 88 5 -3 10 -15 10 -25 0 -10 7
-31 15 -47 8 -15 21 -44 30 -63 21 -48 91 -125 91 -100 0 10 -4 16 -8 14 -4
-3 -8 -3 -8 0 0 2 -3 13 -7 23 -6 17 -5 17 15 -1 12 -11 20 -21 18 -23 -2 -3
9 -17 26 -32 28 -25 28 -27 9 -28 -12 -1 -46 -13 -76 -27 -61 -28 -75 -49 -82
-131 -8 -79 -18 -89 -102 -91 l-73 -2 -15 36 c-8 21 -25 61 -39 90 -13 29 -24
55 -24 58 0 3 -13 36 -29 72 -42 95 -38 119 64 367 10 23 12 31 14 45 2 17 15
11 54 -26z m-235 -364 c6 0 18 -15 26 -32 40 -88 105 -242 103 -244 -1 -1
-146 -4 -322 -7 -210 -3 -314 -1 -304 6 8 5 114 76 235 156 189 127 221 146
235 134 8 -7 21 -13 27 -13z m1312 -191 c0 -10 -34 -45 -62 -63 -32 -21 -43
-9 -34 37 6 30 8 32 51 32 25 0 45 -3 45 -6z m794 -324 c3 -11 7 -31 10 -45 3
-14 11 -47 17 -73 6 -26 9 -51 6 -54 -7 -6 -66 33 -84 55 -7 9 -13 28 -13 43
0 15 -4 30 -9 34 -11 6 0 49 26 104 l18 38 12 -41 c7 -23 15 -50 17 -61z"/>
</g>
</svg>
