<svg version="1.0" xmlns="http://www.w3.org/2000/svg" width="716" height="716" viewBox="0 0 537 537"><path d="M299.7 7.7c-1.9 4.3-6 13-9 19.3-3 6.3-7.1 15.3-9.2 20-2.1 4.7-4.9 11-6.2 14-10.6 23.4-28.3 66.5-39.7 97-7.5 20.1-14.1 37.4-14.6 38.5-.5 1.1-2.6 6.6-4.7 12.3-3.2 8.7-4.2 10.4-6.3 10.8-14.7 3.3-25.2 7.6-31.5 12.9-6.3 5.3-13.5 12.9-13.5 14.2 0 .7-.3 1.3-.8 1.3-.4 0-1.6 2-2.7 4.5s-2.4 4.5-2.9 4.5c-.4 0-.6.6-.3 1.4.3.8.3 1.6-.1 1.8-1.4.6-5.3 14.7-5.8 20.9-.7 7.6-.7 16.3 0 23.9.2 3 .7 9.9 1.1 15.3l.7 9.9-3.3 2.8c-3.3 2.7-3.4 3-3.3 9.6.1 6.9 3.3 16.4 5.4 16.4 1.8 0 1 9.8-1.1 15.7-2 5.6-6.4 10.7-8.2 9.6-1.9-1.2-7.9-.4-9.8 1.3-1.7 1.5-1.8 2-.5 3.8 1.1 1.8 1.1 2.3 0 3.4-2 1.9-1.7 4.9.6 6.5 1.8 1.2 1.8 1.6.6 2.6-2 1.6-.1 6.1 2.6 6.1 1.9 0 1.9 1.4.1 6-.5 1.4-2 5.3-3.2 8.7-1.7 4.6-2.9 6.3-4.6 6.7-1.3.3-2.9 1.9-3.6 3.4-.8 1.8-4.5 5-10.3 8.7-5 3.3-18.2 11.9-29.4 19.3-19.3 12.7-20.6 13.3-26 13.7-3.1.1-5.9.3-6.2.4-.3.1-.3 3.5 0 7.7l.5 7.7 4 1.6c2.2.9 4.1 2.3 4.1 3.1 0 .8.5 2.4.9 3.4.6 1.3.5 2.1-.3 2.4-.6.2-2.2 1.2-3.4 2.2l-2.3 1.8 2.7 1.3c2.3 1 3.1.9 5.3-.5 1.4-.9 2.5-2.1 2.5-2.6s1.1-2.1 2.5-3.6l2.4-2.6 6.9 2.1c3.7 1.1 8.3 2.2 10.2 2.3 2 .1 3.5.9 3.7 1.8.4 1.4 4.4 3.8 7.6 4.4.6.2 2.1.6 3.2 1 1.1.5 4.3 1.6 7 2.7 7.2 2.7 24.8 9 26 9.4 4.7 1.2 7.5 2.9 7.5 4.5 0 2.2 3.9 7.2 5.1 6.5.5-.4.9-.1.9.5s.5.8 1 .5c.6-.4.8-1.1.5-1.6-.4-.5-.1-.9.5-.9s.2-1-1-2.2c-4.1-4.4-3.5-4.6 15.5-5.1 12.8-.3 15.7-.1 19.8 1.5 5.9 2.2 12.1 2.3 17.8.2 3.7-1.3 7.3-1.5 22.9-.9 25 .9 30.6 1.1 44 1.9 6.3.3 16.2.9 22 1.2 30.7 1.6 38 2.2 39.8 3.6.6.6 1.2 2.3 1.2 3.9 0 2.5.4 2.9 2.9 2.9 2.3 0 3.2-.7 4.2-3 1-2 2-2.8 3.3-2.6 1.4.2 3-1.1 5.4-4.7 3.2-4.6 3.3-5 1.5-6.2-4.5-3.3-5.2-4.2-5.7-7.9-.4-2.1-1.7-8.6-3-14.5-1.3-5.8-2.7-12.6-3.2-15.1-.9-5-1.1-5.9-1.3-6.3-.2-.1-.4-1.9-.7-4-.3-2.7.4-5.6 2.6-10.7 3-6.8 4.3-12.1 5.5-21.7 1.1-8.5 2.4-11.3 5.1-11.3 2.8 0 3.1-.6 3.8-8 .2-3 .6-6.2.9-7 2.3-8.7 3-11.1 4.4-15 2-5.4 6.4-13.4 9.6-17.4 2-2.5 2.5-2.7 3.8-1.4 3 3 11.7 6.1 19.4 7 9 1 19.3.5 22.4-1.1 2.7-1.5 3.9-6.1 3.6-14.1-.5-11.8-2.1-17.5-6.9-25-8.4-13-14.1-17.2-29.8-22.1-4.3-1.3-7.8-2.7-7.8-3.2 0-.4 5.1-.7 11.3-.8 16.6-.2 22.5-.8 34.2-3.9 6.2-1.6 8.1-1.8 8.4-.8.9 2.6 6.1 6.5 10.3 7.7 7.7 2.2 13.7.1 21.2-7.5 5.4-5.5 10-14.5 9.8-19.2-.3-6.5-5-11.1-12.9-12.7-1.8-.4-3.3-1-3.3-1.3 0-.4 1.1-2.4 2.5-4.4 1.4-2 2.5-4.1 2.5-4.7 0-.5.4-1.1.9-1.3.6-.1 4.1-6.4 7.8-13.8 7.3-14.4 10.1-21.9 12-32.5.9-5.2.9-24-.1-28.5-1.7-8.7-6.9-21.1-11.3-27-4.9-6.7-19.7-20-22.2-20-.5 0-1.1-.4-1.3-.8-.3-.8-10.6-6-17-8.6-3.9-1.5-4-2-1.7-7.1.5-1.1 2.2-5.6 3.8-10 3.3-9.1 15.7-41 17.1-44 .5-1.1 3.9-9.4 7.6-18.5 6.5-16.1 18.2-44.1 23-54.9 1.3-2.9 2.4-5.7 2.4-6.2s-2.4-.9-5.3-.9h-5.3l-4.7 11.2c-2.6 6.2-6.9 17.4-9.7 24.8-2.8 7.4-5.4 14.4-5.9 15.5-.9 1.9-9.6 24.8-14.3 37.5-1.1 3-2.5 6.4-2.9 7.5-.5 1.1-3.6 9.6-7 19-3.4 9.3-6.6 18.3-7.1 19.8-.8 2-1.5 2.6-2.7 2.2-9.1-3.6-31.6-4.3-42.6-1.2-10.3 2.9-22 9.3-28.4 15.8-4 4-11.1 14.6-11.1 16.6 0 .8-.8 3.3-1.9 5.6-4.7 10.7-11.6 33.2-14.7 48.2-1.5 7.5-1.6 7.6-3.5 7-5.3-1.7-7-1.5-9.4 1.1-1.3 1.4-2.7 3.8-3 5.4l-.6 2.9-4.8-4.5c-11.7-10.9-27.7-17.9-40.8-17.9-2.4 0-4.3-.4-4.3-.8 0-.5-.5-.5-1.1-.1-.7.4-4.2.8-7.8.9-3.6.1-9.5.8-13 1.4-3.4.7-6.5 1-6.7.8-.3-.2 3.5-10.3 8.4-22.3 4.9-12.1 13.3-32.7 18.7-45.9C268.7 100.7 295.8 38.8 310 9.8l4.9-9.8h-11.6l-3.6 7.7zm21.4 289.4c4.4 3.8 15.3 10.6 24.2 15.2 4.9 2.5 8.4 4.8 7.9 5.1-1.3.8-14.9-.5-21.2-1.9-5.4-1.3-7.6-1.6-16.6-2.4-.9-.1-.9-1.3-.3-4.1 1.1-4.8 2.2-11 2.2-12.8 0-1.7 1-1.5 3.8.9zm-10.9 46.8c-.1.6.9 1.6 2.2 2.2l2.5 1.2-3 3.1c-2.4 2.5-3.1 2.8-3.8 1.6-.6-.8-.8-1.7-.6-2 .2-.4.5-2.3.7-4.4.1-2 .7-3.5 1.3-3.2.5.2.9.9.7 1.5zm-157.9 64.7c2 1.9 3.8 4.1 3.9 4.7 0 .7.2 1.6.3 2.2.2 1.5 6.8 14.9 7.5 15.5.4.3 1 1.2 1.3 2 .4 1.2.6 1.2.6-.2.1-.9-.4-2.9-1-4.5-1.6-4.1-2.2-9.6-.9-8.8.5.3 1 1.5 1 2.5s.7 3.1 1.5 4.7c.8 1.5 2.1 4.4 3 6.3 2.1 4.8 9.1 12.5 9.1 10 0-1-.4-1.6-.8-1.4-.4.3-.8.3-.8 0 0-.2-.3-1.3-.7-2.3-.6-1.7-.5-1.7 1.5.1 1.2 1.1 2 2.1 1.8 2.3-.2.3.9 1.7 2.6 3.2 2.8 2.5 2.8 2.7.9 2.8-1.2.1-4.6 1.3-7.6 2.7-6.1 2.8-7.5 4.9-8.2 13.1-.8 7.9-1.8 8.9-10.2 9.1l-7.3.2-1.5-3.6c-.8-2.1-2.5-6.1-3.9-9-1.3-2.9-2.4-5.5-2.4-5.8 0-.3-1.3-3.6-2.9-7.2-4.2-9.5-3.8-11.9 6.4-36.7 1-2.3 1.2-3.1 1.4-4.5.2-1.7 1.5-1.1 5.4 2.6zM128.8 445c.6 0 1.8 1.5 2.6 3.2 4 8.8 10.5 24.2 10.3 24.4-.1.1-14.6.4-32.2.7-21 .3-31.4.1-30.4-.6.8-.5 11.4-7.6 23.5-15.6 18.9-12.7 22.1-14.6 23.5-13.4.8.7 2.1 1.3 2.7 1.3zM260 464.1c0 1-3.4 4.5-6.2 6.3-3.2 2.1-4.3.9-3.4-3.7.6-3 .8-3.2 5.1-3.2 2.5 0 4.5.3 4.5.6zm79.4 32.4c.3 1.1.7 3.1 1 4.5.3 1.4 1.1 4.7 1.7 7.3.6 2.6.9 5.1.6 5.4-.7.6-6.6-3.3-8.4-5.5-.7-.9-1.3-2.8-1.3-4.3s-.4-3-.9-3.4c-1.1-.6 0-4.9 2.6-10.4l1.8-3.8 1.2 4.1c.7 2.3 1.5 5 1.7 6.1z"/></svg>